<?xml version="1.0" standalone="no"?>
<!DOCTYPE svg PUBLIC "-//W3C//DTD SVG 20010904//EN"
 "http://www.w3.org/TR/2001/REC-SVG-20010904/DTD/svg10.dtd">
<svg version="1.0" xmlns="http://www.w3.org/2000/svg"
 width="16.000000pt" height="16.000000pt" viewBox="0 0 16.000000 16.000000"
 preserveAspectRatio="xMidYMid meet">
<metadata>
Created by potrace 1.11, written by Peter Selinger 2001-2013
</metadata>
<g transform="translate(0.000000,16.000000) scale(0.002286,-0.002286)"
fill="#000000" stroke="none">
<path d="M3298 6995 c-2 -1 -41 -5 -88 -9 -100 -7 -225 -22 -295 -36 -27 -5
-61 -12 -75 -14 -198 -36 -503 -126 -657 -193 -21 -9 -40 -17 -43 -18 -78 -23
-379 -183 -550 -293 -81 -52 -319 -227 -330 -243 -3 -3 -25 -23 -50 -44 -84
-69 -229 -214 -365 -365 -93 -103 -287 -374 -355 -495 -153 -272 -219 -414
-301 -652 -33 -96 -82 -266 -94 -321 -2 -9 -8 -37 -14 -62 -11 -49 -13 -63
-35 -195 -34 -204 -40 -302 -40 -570 0 -195 8 -351 19 -395 2 -8 6 -40 10 -70
6 -61 9 -82 30 -190 19 -97 19 -100 45 -200 33 -132 91 -310 130 -405 89 -213
178 -391 267 -538 l35 -58 -269 -810 c-148 -445 -268 -811 -266 -812 2 -2 367
117 812 266 l809 269 93 -55 c126 -74 308 -164 454 -227 69 -29 194 -74 280
-101 94 -29 110 -33 153 -43 9 -2 55 -13 102 -25 128 -30 237 -50 370 -66 218
-27 664 -27 850 1 144 21 295 48 345 61 33 8 67 16 75 18 230 47 735 253 910
371 19 13 38 24 43 24 4 0 13 5 20 10 7 6 64 45 127 87 108 71 250 178 330
248 119 104 294 279 365 365 21 25 41 47 44 50 17 12 180 233 238 323 252 387
417 792 507 1248 14 70 28 155 32 190 3 35 8 67 10 70 9 17 19 214 18 399 0
188 -6 331 -19 420 -3 19 -7 56 -10 81 -3 25 -7 54 -9 65 -2 10 -11 60 -21
109 -98 526 -337 1054 -671 1480 -43 55 -83 105 -88 112 -345 378 -544 545
-903 758 -224 134 -562 283 -748 331 -5 2 -41 12 -80 23 -68 21 -260 65 -320
75 -53 9 -238 35 -295 41 -54 7 -526 16 -532 10z"/>
</g>
</svg>
