<svg xmlns="http://www.w3.org/2000/svg" viewBox="0 0 460 460"><path fill="#233145" d="M392.63 67.37C434.26 108.99 460 166.49 460 230c0 127.02-102.98 230-230 230-26.553 0-52.06-4.507-75.79-12.788-19.23-6.71-84.025-57.397-84.025-57.397L392.63 67.37z"/><path fill="#466289" d="M392.63 67.37l-155.56 169.7L70.186 389.816S19.5 325.02 12.788 305.79C4.506 282.057 0 256.55 0 230 0 102.98 102.98 0 230 0c63.51 0 121.01 25.74 162.63 67.37z"/><path fill="#FB7B46" d="M364.292 95.708L237.072 237.07 95.707 364.293C61.307 329.883 40 282.383 40 230c0-104.766 85.234-190 190-190 52.383 0 99.883 21.308 134.292 55.708z"/><path fill="#FA6121" d="M364.292 95.708C398.692 130.118 420 177.618 420 230c0 104.766-85.234 190-190 190-52.383 0-99.883-21.31-134.292-55.708L364.292 95.708z"/><path fill="#FFB739" d="M247.607 226.535l-84.853-70.71-149.96 149.958c5.833 16.712 13.535 32.545 22.858 47.245L0 460l247.607-233.465z"/><path fill="#FB992D" d="M304.175 297.246l-63.64-77.782L9.77 450.23 0 460l106.973-35.65c14.7 9.32 30.532 17.022 47.243 22.854l149.96-149.958z"/><path fill="#FFEAC3" d="M162.754 155.824l96.62-23.73 48.408 34.266-74.317 60.175"/><path fill="#FFD488" d="M233.465 226.535l67.246-67.246 27.197 41.336-23.73 96.62"/><path fill="#466289" d="M259.373 132.094l90.835-22.302-21.213 35.355-35.355 21.213"/><path fill="#233145" d="M293.64 166.36l56.568-56.568-22.302 90.835"/></svg>